<svg id="Layer_1" data-name="Layer 1" xmlns="http://www.w3.org/2000/svg" viewBox="0 0 895 57"><title>dots</title><rect x="122.5" y="0.5" width="56" height="56"/><path d="M439,357v55H384V357h55m1-1H383v57h57V356Z" transform="translate(-261 -356)"/><rect x="244.5" y="0.5" width="406" height="56"/><path d="M911,357v55H506V357H911m1-1H505v57H912V356Z" transform="translate(-261 -356)"/><rect x="0.5" y="0.5" width="56" height="56"/><path d="M317,357v55H262V357h55m1-1H261v57h57V356Z" transform="translate(-261 -356)"/><rect x="838.5" y="0.5" width="56" height="56"/><path d="M1155,357v55h-55V357h55m1-1h-57v57h57V356Z" transform="translate(-261 -356)"/><rect x="716.5" y="0.5" width="56" height="56"/><path d="M1033,357v55H978V357h55m1-1H977v57h57V356Z" transform="translate(-261 -356)"/></svg>